<svg version="1.0" xmlns="http://www.w3.org/2000/svg" viewBox="0 0 542 460" fill="currentColor"><path d="M17 107.5V147l127.2-.2 127.1-.3-.1-39-.1-39-127.1-.3L17 68v39.5zM55 78c0 1.6-.8 1.9-6.2 2.2l-6.3.3-.3 5.2-.3 5.3h5.5c4.9 0 5.6.2 5.6 2s-.7 2-5.5 2H42v13.9l7.8.3c6.7.3 7.7.5 7.7 2.1 0 1.7-1.1 1.8-13 1.8h-13l-.3-18.5L31 76h12c11.2 0 12 .1 12 2zm26.3 0c3.1 2.4 4.6 7.8 2.6 9.1-2.5 1.5-3.9 1-3.9-1.6 0-3.5-3.3-6.5-7.3-6.5-3.6 0-5.7 1.5-5.7 4 0 2.3 2.7 4.5 7.3 6 5.1 1.6 10.3 6.3 11.7 10.5 2.4 7.4-4.1 14.5-13.3 14.5-9.2 0-14.1-3.8-13.5-10.3.2-2.4.8-3.3 2.6-3.5 1.9-.3 2.2.1 2.2 3 0 4.2.8 5.4 4.3 6.7 3.5 1.3 7.4.5 8.7-1.9 1.4-2.6-1.4-5.8-7.4-8.4-5.9-2.6-9.3-6.3-10.2-11.1-.7-4.1 1.6-8.9 5.4-10.9 4.1-2.3 13.4-2 16.5.4zm34.8.7c4.3 3.7 5.9 8 5.9 16.1 0 12.5-5.7 19.2-16.3 19.2-11.3 0-17.8-8.9-16.4-22.4C90.4 80.4 95.2 76 106.2 76c5.8 0 7.1.4 9.9 2.7zm34.7-.5c.3 1.6-.5 1.8-6.2 1.8H138v11h5.5c4.8 0 5.5.2 5.5 2s-.7 2-5.5 2H138v14h7.5c6.8 0 7.5.2 7.5 2 0 1.9-.7 2-13.5 2H126V95.2c0-9.8.3-18.2.7-18.6.4-.3 5.9-.5 12.2-.4 10.1.3 11.6.5 11.9 2zm29 0c-.3 1.9-1 2.1-6.3 2.2l-6 .1-.3 5.7-.3 5.8h5.6c4.8 0 5.5.2 5.5 2s-.7 2-5.5 2H167v8.3c0 4.6-.2 8.6-.4 8.8-.2.2-2.7.2-5.5.1l-5.1-.4V76h12.1c11.8 0 12 .1 11.7 2.2zm45.4 1.3c-.6 4.8-1.7 5.4-10.5 5.7-8.2.3-8.2.3-8.5 3.1-.3 2.6-.2 2.7 1.7 1.8 1.1-.6 4.3-1.1 7.1-1.1 4.6 0 5.6.4 8.5 3.3 6.4 6.4 5.2 15.9-2.5 19.9-4.8 2.5-13.5 2.4-17.7-.2-5.2-3.1-6-10.2-1.2-10.8 2.3-.3 2.5 0 2.5 3.3 0 4 1.5 5.5 5.5 5.5 3.3 0 5.8-2.8 6.6-7.4 1.1-7.1-5.1-11.3-10.1-6.7-1.5 1.3-2.7 1.7-4.2 1.1-2.1-.8-2.1-1-.7-9.7.8-4.8 1.6-9.4 1.8-10.1.4-.9 3.1-1.2 11.2-1l10.8.3-.3 3zm31.7-2.5c2.8 1.4 4.7 6.6 3.1 8.5-.7.8-2.1 1.5-3.1 1.5-1.4 0-1.9-.7-1.9-2.9 0-6-6.9-6.8-8.9-1-1.5 4.5-1.5 8.7.1 7.1.7-.7 3.2-1.2 5.6-1.2 3.5 0 4.9.6 7.3 2.9 2.4 2.5 2.9 3.7 2.9 8.1 0 9.4-4.5 14-13.8 14-5.8 0-10.9-3-13.1-7.5-2-4-2.6-14.5-1.1-18.9 1.4-4.3 5.5-9.4 8.4-10.6 2.9-1.2 12.4-1.2 14.5 0zm3.1 53.5V143l-114.7-.2-114.8-.3-.3-12.3-.3-12.2H260v12.5z"/><path d="M102.9 80.7c-1 1.2-1.4 5-1.4 14.5 0 11.7.2 13.1 1.9 14.4 5.2 3.8 8.2-4.7 7-19.9-.8-9.8-3.8-13.5-7.5-9zM245 96c-2.1 5 0 15 3.2 15 1.3 0 3.8-6.4 3.8-9.9 0-7.4-4.7-10.7-7-5.1zM83.4 124.4c-.3.7-.4 4-.2 7.2.3 5.1.6 5.9 2.3 5.9 1.4 0 2.1-.8 2.3-2.5.2-1.8 1.2-2.9 3.2-3.7 3.2-1.2 4.1-4.8 1.8-7.1-1.7-1.7-8.7-1.5-9.4.2zm7 2.2c.7 1.8 0 3.4-1.5 3.4-.5 0-.9-1.1-.9-2.5 0-2.8 1.5-3.4 2.4-.9zM131.7 123.7c-.4.3-.7 3.5-.7 7v6.3l5.3-.2c3.5-.1 4.2-.2 2-.5-2.7-.4-3.3-.9-3.3-2.9 0-1.6.8-2.8 2.3-3.4l2.2-.9h-2.2c-3.4-.1-3.2-4.1.2-4.1 1.4 0 2.5-.5 2.5-1 0-1.1-7.3-1.4-8.3-.3zM148.3 124.9c-.3 1.2-1.3 2.1-2.4 2.1-1.1 0-2.4 1.1-3 2.4-1.5 3.2-.4 7.6 1.9 7.6 1.4 0 1.7-.8 1.4-4.5-.3-2.8 0-4.5.7-4.5.6 0 1.1 1.9 1.1 4.5 0 3.9.3 4.5 2 4.5 1.9 0 2.1-.5 1.8-6.7-.2-4.4-.7-6.8-1.6-7.1-.7-.2-1.6.5-1.9 1.7zM195 124c0 .5.7 1 1.6 1 .8 0 1.2-.5.9-1-.3-.6-1-1-1.6-1-.5 0-.9.4-.9 1zM108 130.5c0 5.1.3 6.5 1.5 6.5s1.5-1.4 1.5-6.5-.3-6.5-1.5-6.5-1.5 1.4-1.5 6.5zM188.9 125.3c-2.1 2-1.3 11.7.9 11.7 1.4 0 1.7-1 1.5-6.1-.2-6.9-.5-7.6-2.4-5.6zM168.3 127.7c-3.1 2.1-3.2 7.8-.2 9.4 2.7 1.4 6.9-.3 6.9-2.8 0-1.5-.3-1.4-1.9.6-2.3 3-3.3 1.6-2.9-3.9.2-4.1.2-4.1 1.9-1.9 1.1 1.5 1.8 1.8 2.4 1 .4-.7-.1-1.8-1.1-2.6-2.3-1.8-2.4-1.8-5.1.2zM179.8 127c3.1 1.3 2.8 3-.8 4.3-2.2.8-3 1.7-2.8 3.2.4 2.8 3.5 3.2 3.4.4-.1-1.2.5-2.4 1.2-2.7.9-.3 1.3.3 1 1.9-.2 1.8.2 2.5 1.8 2.7 1.8.3 2-.1 1.7-3-.9-7.4-1.1-7.8-4.6-7.7-2.9 0-3 .1-.9.9zM97.2 128.2c-1.8 1.8-1.5 7.5.4 8.2.9.3 1.6.6 1.7.6.5 0 .1-10-.3-10-.3 0-1.1.5-1.8 1.2zM101.5 132c0 3.8.4 5 1.4 4.8 2.1-.4 3.1-4.2 1.8-6.8-2-4-3.2-3.3-3.2 2zM114.2 128.2c-1.5 1.5-1.5 6.1 0 7.6 1.9 1.9 3.1 1.4 2.4-1.1-.6-2.7.3-6.7 1.5-6.7.5 0 .9 2 .9 4.5 0 4.6.7 5.4 2.8 3.3 1.7-1.7 1.5-5.4-.4-7.2-1.8-1.9-5.5-2.1-7.2-.4zM154.2 131.7c.3 4.3.6 4.8 2.8 5.1 2 .3 2.3.1 1.3-.9-.7-.7-1.3-3-1.3-5.1 0-2.8-.4-3.8-1.6-3.8-1.2 0-1.4 1-1.2 4.7zM160.7 127.6c-.4.4-.7 2.7-.7 5.1 0 3.7.3 4.3 2.1 4.3s2-.5 1.7-4.7c-.3-4.4-1.5-6.2-3.1-4.7zM195 132c0 3.8.4 5 1.5 5s1.5-1.2 1.5-5-.4-5-1.5-5-1.5 1.2-1.5 5zM200.4 129.5c1.9 7.7 3.9 9.4 5.6 4.9 1.3-3.2 1.3-4.4 0-2.4-.7 1.2-1.2.8-2.1-1.8-1.3-3.9-4.5-4.6-3.5-.7zM210.4 129.5c-2.4 3.7-.6 7.6 3.3 7.3 3.8-.2 5.3-1.6 5.3-4.7 0-2.5-1.6-5.1-3.1-5.1-.3 0-.4 1.9-.2 4.3.4 3.3.2 4.4-.8 4.4s-1.4-1.3-1.3-4.4c.1-4.9-.8-5.4-3.2-1.8zM313.1 79.6c-8.1 6.8.1 20.4 9.8 16.4 6.7-2.7 7.4-14.2 1.1-17.5-4.2-2.2-7.4-1.8-10.9 1.1zM294.7 102c-5.1.9-5.4 1.5-2.9 5 2.8 3.7 2.8 4.3 0 3.5-2-.5-1.9-.3.7 1.9 1.6 1.4 4.3 2.8 5.9 3.2 3.8.8 6 3.5 11.8 14.8 5.4 10.4 5.8 12.2 2.6 11.1-9.3-2.8-9.4-2.8-13.6-.2-4 2.6-6.2 6.6-6.2 11.6 0 3.4 3.4 8.9 6.3 10.2 1.8.8 2.3 1.7 2 3.4-.3 1.2 0 2.6.6 2.9.7.5.3 1.7-1.1 3.7-2.1 2.8-2.1 3.2-.9 10.6 1.2 7 4.3 14.1 7.1 15.8.5.3 1 1.4 1 2.4s.6 2.4 1.4 3c3.9 3.3 6.5 27.4 3.1 28.8-1 .3-1.5 2-1.5 4.8 0 2.3-.6 6.1-1.4 8.3-2.6 7.4-3 14.6-1.1 22.3 1.7 6.7 1.7 7.3.1 10-.9 1.6-1.9 5.3-2.1 8.1-.3 5.3-5 23.4-6.5 25.3-.4.5-1 2.6-1.4 4.5-.3 1.9-1.7 6.2-3.1 9.5-1.3 3.3-2.5 7.3-2.5 8.9 0 4 7.3 19.1 10.2 21 3.7 2.4 6.1 1.1 5.4-2.8-.3-1.7-.8-5.4-1.1-8.1l-.6-5 7.3 7.7c8 8.3 11.4 10.6 13.1 8.9.8-.8.4-2.4-1.1-5.8-2.6-5.7-3.9-12.3-2.4-12.3.5 0 1-.6.9-1.3-.1-4 .5-5.9 2.1-6.4 1.2-.3 2.4-2.5 3.6-6.8 1.5-5.4 1.6-6.8.5-9.9-1-2.9-1.1-4.5-.1-8.1.7-2.5 1.2-5.2 1.2-5.9 0-.8 2.5-6.6 5.6-13 4.9-10.1 5.7-12.7 6.6-20.8 1.3-11.1 1.2-19.6 0-24.2-.6-1.9-.7-6.4-.5-10 .5-6.1.8-6.8 3.7-8.5 3-1.9 3.1-2.1 3-9.5 0-7.3-.2-7.8-4.2-13.3-6-8.3-9.5-15.9-8.8-18.8.4-1.4 1.9-3.1 3.5-4 1.6-.8 3.4-2.8 4-4.5.9-2.9 1.3-3.1 4.5-2.5 3.8.8 4.8-.1 3.9-3.3-.4-1.8-1.3-2.2-4.4-2.2-4.7 0-8.9 1.5-8.9 3.3 0 .7-.7 2.3-1.6 3.5l-1.5 2.3-5-5.3-4.9-5.3.5-11.1c.4-9 .2-11.8-1.2-14.5-1.9-3.9-10.3-16.7-14.4-22-1.6-2-2.6-3.9-2.2-4.3.3-.3 0-.6-.8-.6-.8-.1-3-2.3-4.9-5-4.1-5.7-4.3-5.9-9.3-5z"/><path d="M254.8 155.9c-7.3 1.5-11.7 6.5-10.3 12 .5 2 0 3.1-2.7 5.3l-3.3 2.7 3.3.1c3.5 0 3.7.2 2.1 3.1-.7 1.4-1.6 1.8-3 1.4-1.2-.4-2.7-.1-3.7.8-.9.8-6.1 2.2-11.5 3.1-5.7.9-11.2 2.4-13.1 3.5-3.3 2.1-9.6 9.2-9.6 10.9 0 .6-3.1 4.6-7 9.1-4.5 5.2-7.3 9.4-8 12.1-2.3 9-2.8 11.8-3.5 18.5-.3 3.8-1.1 7.5-1.6 8.2-.6.6-1.2 2.7-1.3 4.5-.2 1.8-.9 5.9-1.6 9.1-1 4.4-1.1 6-.2 6.9.9.9 1.2.6 1.2-1.2l.1-2.5 1.5 2.7c1.2 2.3 4.2 3.6 5.7 2.5.2-.1 1.1.4 1.9 1.1 1.4 1.1 1.7.5 2.3-5.5.4-4.2.2-7.9-.5-9.7-1.4-3.9-.5-9.7 3.6-23.2l3.5-11.1 6.2-4.5 6.2-4.6.7 3.6c1.4 7.5.9 16.1-1.2 20.2-1.1 2.2-2 4.8-2 5.9 0 2.2-2.6 12.6-3.4 14-.3.5-1 3.8-1.5 7.4-1.7 12 4.8 33.9 10.5 35.3 2.3.6 2.5 1 2 3.8-1.6 7.8-1.7 18.2-.3 22.7 1.2 4 1.2 4.9-.1 7.5-.9 1.6-2.3 4.9-3.3 7.4-5.7 14.9-12.2 28.7-15.2 32.3-5.3 6.6-7.8 12-7.1 15.9 1.1 5.9 7.3 8.6 12.1 5.3 1.9-1.3 2-1.9 1.1-4.5-.8-2.3-.7-3.5.4-5.3.8-1.2 2.1-3.9 2.8-6.1.7-2.1 4-7.9 7.3-12.9l6.2-9 .8 3.7c1 4 3.7 6.1 6.6 5.1 1.3-.4 2.9.3 4.7 2 2 1.9 3.8 2.5 7.1 2.5 8.1 0 12.4-7.2 9.3-15.4-1.1-2.9-6.4-6.6-9.6-6.6-1.2 0-2.7-.7-3.4-1.5-.7-.8-2.1-1.5-3.1-1.5s-2-.3-2.3-.8c-.6-1 7.6-24.7 10.3-29.7 1.2-2.2 3.1-5.4 4.1-7.1 3-4.7 7-21.8 7.6-32.4.3-5.2 1.4-14.5 2.5-20.5 1-6.1 1.6-12.6 1.3-14.5-.6-4.2 3.5-16.5 5.5-16.5.8 0 2.2 2.4 3.1 5.3 2.1 6.5 7.2 14.1 14.9 22.7 3.3 3.6 6.3 7.5 6.6 8.5.4 1.1 1.1 2 1.6 2s.9 1.1.9 2.5c0 1.5.8 4 1.7 5.8.9 1.8 2.2 5 2.8 7.2 1.3 4.3 3.7 5.5 6.8 3.3 3.2-2.4.7-10.3-8.8-28.8-1.3-2.5-3.8-7.9-5.6-12-1.7-4.1-5-10.4-7.4-14-3.8-5.8-4.3-7.4-4.9-14.4-.9-9.8-2.6-14.1-6.6-16.4-3.6-2.1-3.7-2.9-.5-9 1.3-2.6 2.9-7.9 3.6-11.9 1.1-6.7 1-7.4-1-10.6-1.3-2.2-3.7-4.1-6.1-5.1-2.2-.9-4.1-1.5-4.3-1.5-.1.1-1.8.5-3.9.8zM392.5 193.7c-1.1.2-3 .6-4.2.9-1.3.2-3 1.5-3.9 2.9-1.8 2.7-4.3 14-3.7 16.5.7 2.5-2.8 4.7-8.4 5.2-7.4.7-10 2.8-13.9 11.3-3.7 8-4.3 12.2-1.9 13.2 1.3.4 1.5 1.7.9 7.3-.7 7.5.4 11 3.7 11 1.8 0 2 .4 1.4 2.7-3.5 12.9-3.9 18.8-2.6 32.2.7 6.4 1.4 16.8 1.6 23.1.2 8.7 1 13.5 2.9 19.9 1.4 4.6 3 8.9 3.5 9.5.6.7.9 4.7.7 9-.2 6.4.1 8.6 1.8 12 4.7 9.3 12.9 3.6 10.4-7.3-.8-3.6-.8-6.1 0-9.2.9-3.7.8-5-1.1-9.3-1.4-3.3-2.1-6.9-2-10.1.7-21.5 1.3-31.3 2-33.4l.9-2.3 1.7 2.5c2.3 3.5 3.8 11 3.6 17.1-.2 2.9.5 7.3 1.5 10.1 1.9 5.3 4 22.2 3.7 29.5-.1 2.5-.2 11-.2 19 .1 13.8.2 14.6 2.3 16.3 2.6 2.2 8.2 1.8 10.6-.7 1.3-1.3 1.4-2.5.3-8.4-.7-4-1.4-18.8-1.6-35.3-.2-17.3-.8-29.8-1.4-31.9-.7-1.9-.9-6-.6-9 .9-8.6.9-28.3 0-30.3-1.1-2.7-.1-3 3.5-1.2 5.4 2.8 11.5 2.2 17.1-1.7 2.7-1.8 4.9-4 4.9-4.8 0-.9.7-2.6 1.6-3.9 1.2-1.7 1.3-2.6.5-3.4-.6-.6-1.1-2.4-1.1-3.9 0-3.9-6.2-10.5-10.9-11.8-4.8-1.3-6.7-3.5-7.5-8.7-1-6.6-2.3-9.3-5.3-10.4-4.9-1.8-5.6-3-3.3-5.1 1.1-1 2-2.5 2-3.2 0-.7 1.6-3 3.5-5 4.3-4.6 4.6-8.4 1-13.1-2.7-3.4-9.4-8.6-11.1-8.4-.5.1-1.8.3-2.9.6z"/><path d="M110 198.4c-.6.8-2.7 2-4.5 2.6-1.9.6-4.4 2.7-6 5-2.3 3.3-2.6 4.4-2 8.5.5 2.9 2.2 6.9 4.7 10.6l4.1 6-2.6 2.7c-4.1 4.3-5.1 7.9-3.4 12.7 4.9 13.6 6.2 20.1 6.1 30 0 5.5-.5 11.6-1.1 13.5-.6 1.9-1.7 6.8-2.4 10.9-.9 5.5-2 8.3-4.3 11.1-1.7 2.1-3.8 5.1-4.7 6.8-.9 1.6-6.3 6.2-12 10.2-14.8 10.4-24.5 17.6-31.5 23.4-11.7 9.7-15.6 12.6-16.5 12-.5-.3-.9-1.9-.9-3.5 0-4-2.7-5-5.1-2-3.4 4.2.7 12.1 6.2 12.1 3.7 0 21.8-13.6 52.9-39.9 6-5 9.9-7.6 10.4-7 1.5 1.4 2.6 1.1 2.6-.6 0-.8.5-1.5 1-1.5 1.1 0 6.5-5.1 7.1-6.7.7-1.5 17-13.5 17.6-12.9.3.3 1.2-.2 1.9-1.2.7-.9 1.5-1.4 1.8-1.1.4.3 1.8 6.8 3.3 14.4 2.8 14.5 6.2 22.4 11.7 27 1.3 1.1 4.2 6.5 6.6 12 2.3 5.5 5.7 12.8 7.6 16.2 3.7 6.7 4.2 9.4 1.9 11.3-.8.7-1.5 2.1-1.5 3.2 0 1.9.6 2 8.5 1.7 8.6-.4 11.7-1.7 9.8-4.1-.6-.7-1.3-2.7-1.6-4.3-1.4-7.1-2.1-9.2-4.8-12.5-1.5-2-3.4-6-4.2-9-.8-3-1.8-6.3-2.2-7.2-.9-2.3-.6-2.3 10 1.1 10 3.2 10.1 3.3 10.4 13.4.1 3.7.7 5.4 2.7 7.4l2.5 2.5 3-2.8c2.8-2.7 2.9-3.2 2.8-10.9-.1-4.4.1-10.1.6-12.7.4-2.6.4-5.9.1-7.3-.6-2.5-1-2.7-5.4-2.2-5.4.5-16-1.6-20.6-4.1-1.7-.9-5.6-1.9-8.6-2.2l-5.5-.5-1.9-7.3-1.9-7.2 3.2-7.3c1.8-3.9 4.6-9.9 6.1-13.2 3.4-7.1 4.4-11.4 4.1-17.4-.2-3.7.1-4.7 2.4-6.5 2.5-2 2.6-2.4 1.6-6.1-.6-2.2-4-8.4-7.6-13.8-5.2-8-6.3-10.2-5.5-11.7 1.6-2.9 1.2-4-1.7-5.3-4.5-2-8.3-4.9-7.7-5.8.3-.5 1-.7 1.5-.3 1.8 1.1-.4-5-2.8-8-1.6-1.9-2.3-3.8-2-5.3.4-2.2.2-2.3-2.3-1.8-2.3.5-3.1.2-4.2-1.8-.7-1.4-2.1-4-3.2-5.8-1-1.9-3-4.6-4.4-6.2-2.4-2.5-3.1-2.7-10.8-2.7-5.9 0-8.5.4-9.4 1.4zM465.7 203c-7 4.7-7.3 5.8-3.7 12.9 1.7 3.2 4.6 7.3 6.6 9 1.9 1.7 3.2 3.5 2.9 4-.3.5-3.6 1.9-7.3 3.2-7.2 2.3-10.4 4.6-22.4 15.8-9.1 8.5-9.9 11-7.4 22.9 2 9.2 2 12.6.1 14.2-3.3 2.7-.7 11 3.3 11 1.9 0 5.1-6 5.8-10.7.3-2.4.1-8.8-.6-14.3-1.1-9.3-1.1-10.2.6-12.1 2.3-2.5 11.6-7.9 13.8-7.9 2.2 0 3.1 4.2 2.9 13.4-.2 7.7-.3 8.1-4.1 12-2.1 2.3-4.5 5.6-5.2 7.3-2 5.2-.9 14.3 2.7 21.2 2.8 5.3 3 6.4 2.1 10.3-3.1 13.5-5 17.8-9.4 20.7-2.4 1.6-5.1 4.9-6.9 8.2-4.2 7.8-5.1 8.7-9.8 9.7l-4.2.8v6.4c0 3.6-.4 7.5-.8 8.7-1.1 2.9 1.6 8 5 9.6 3.5 1.6 4.8-.5 5.6-8.6.3-3.5 1.1-7.5 1.7-8.9 1.2-2.6 6.8-7.8 20.3-18.7 5.4-4.4 8.5-7.8 10.2-11.2 1.4-2.7 2.7-4.9 2.9-4.9.9 0 4.6 7.2 4.6 8.8 0 .9-.9 3-2.1 4.7-1.9 2.8-2 4.3-1.7 20.3.2 11-.1 17.5-.7 18-.6.4-1.9 2.6-2.9 5-2.4 5.4-1.7 6.1 6.5 7.3 14.6 2.1 17.4 2.2 18.9.4 1.2-1.4 1.2-1.8-.1-2.5-7.6-4.5-9.7-7.4-10.9-16-1-6.8 2.1-24.8 5.6-32.9 2.4-5.3 2.4-5.5.9-13.5-1.7-9.4-1.9-14.7-1-34.9.7-14.3.9-15.1 3.9-20.5 3.8-6.7 5.9-7.6 7.2-3.1.5 1.8 1.5 3.4 2.2 3.7 1.2.4 8.2-6.2 12.4-11.6 1.1-1.4 2.9-2.2 4.7-2.2 3.2 0 4.5-1.2 5.5-5.3.9-3.8-.8-5.7-5.1-5.7-2.8 0-3.7.6-5.4 3.4-1.7 3-5.8 6.6-7.4 6.6-.3 0-.5-3.3-.5-7.3 0-8.6-2-13.1-7.3-16.6-2.1-1.3-3.7-3.2-3.7-4.2s-.9-3.3-1.9-5.1c-1-1.8-2.2-5-2.5-7-.9-5.3-5.3-12.6-8.6-14.3-1.5-.8-4.5-1.7-6.6-2-3.3-.5-4.7-.1-8.7 2.5zm22.5 22.5c.6 1.4.8 2.8.4 3.3-.9.8-3.6-2.6-3.6-4.5 0-2.2 2-1.4 3.2 1.2zM330.9 371.2c-.6 1.8-.4 5 .3 5.4.5.3 1.9-.2 3-1.3 1.2-1 1.8-1.3 1.5-.6-.4.6-.2 1.5.5 1.9.7.4 1 .4.6-.1-.4-.4-.3-1.4.3-2.1 1.6-1.9.2-3.4-3.2-3.4-1.6 0-2.9.1-3 .2zm3.4 1.5c-.7.2-1.9.2-2.5 0-.7-.3-.2-.5 1.2-.5s1.9.2 1.3.5zM277.3 383.2c-1.7 2.9-2.8 5.4-2.3 5.6.5.2 1.9 1.9 3.1 3.9 1.8 2.9 1.9 3.7.8 4.4-1.1.7-1 .9.4.9 1 0 2 .7 2.3 1.5.5 1.1 2.1 1.5 6.1 1.5 3 0 5.3-.3 5.1-.8-.7-1.6-12-22.2-12.1-22.2-.1 0-1.6 2.4-3.4 5.2zM351 378.7c-6.4 2.4-6.5 7.2-.4 14.7 3 3.6 4.4 6.1 4 7.2-.5 1.2-.2 1.5 1 1 .8-.3 2-.6 2.5-.6 1.6 0 4.9-3.9 4.9-5.9 0-1.1-2.2-4.6-5-7.9-5.2-6.2-5.8-7.7-3.7-8.5 1.7-.7-1.4-.7-3.3 0zM246 390v11h9.5l-.3-11-.3-11H246v11zM295.2 390.2c.1 6.2.3 8.9.5 6 .2-2.8.9-5.2 1.5-5.2s5 2.2 9.8 5c4.8 2.7 9 5 9.4 5 .3 0 .5-5.1.4-11.3-.1-6.1-.3-8.8-.5-6-.3 3.3-.9 5.3-1.6 5.3-.7 0-4.9-2.3-9.5-5-4.6-2.8-8.7-5-9.3-5-.5 0-.8 4.8-.7 11.2zM321 388.3c0 10.4.8 11.9 6.5 13l3 .6-.3-11.5-.3-11.4H321v9.3zM25 384.1c-1.8 3.2.5 6.9 4.2 6.9 3.4 0 5.9-4 4.1-6.8-1.6-2.7-6.9-2.8-8.3-.1zM272 392c-.6 1.1-.8 2-.6 2 .3 0 1-.9 1.6-2 .6-1.1.8-2 .6-2-.3 0-1 .9-1.6 2zM341.1 393.2c0 1.4-.4 3.5-.7 4.5-.5 1.7-.5 1.7.6 0 .6-1 .9-3 .7-4.5l-.4-2.7-.2 2.7zM268.6 398.2l-1.9 3.3 2.2-2.3c1.2-1.2 2.1-2.7 1.9-3.3-.2-.5-1.2.5-2.2 2.3z"/></svg>